<svg xmlns="http://www.w3.org/2000/svg" version="1.1" xmlns:xlink="http://www.w3.org/1999/xlink" xmlns:svgjs="http://svgjs.dev/svgjs" width="2000" height="939" viewBox="0 0 2000 939"><g transform="matrix(1,0,0,1,-1.2121212121212466,-0.6836768559495567)"><svg viewBox="0 0 396 186" data-background-color="#ffffff" preserveAspectRatio="xMidYMid meet" height="939" width="2000" xmlns="http://www.w3.org/2000/svg" xmlns:xlink="http://www.w3.org/1999/xlink"><g id="tight-bounds" transform="matrix(1,0,0,1,0.2400000000000091,0.13542480852674998)"><svg viewBox="0 0 395.52 185.7291503829465" height="185.7291503829465" width="395.52"><g><svg viewBox="0 0 642.858265659813 301.8747964645317" height="185.7291503829465" width="395.52"><g transform="matrix(1,0,0,1,247.3382656598131,0)"><svg viewBox="0 0 395.52 301.8747964645317" height="301.8747964645317" width="395.52"><g id="textblocktransform"><svg viewBox="0 0 395.52 301.8747964645317" height="301.8747964645317" width="395.52" id="textblock"><g><svg viewBox="0 0 395.52 198.6841121495327" height="198.6841121495327" width="395.52"><g transform="matrix(1,0,0,1,0,0)"><svg width="395.52" viewBox="0.5 -43 85.59 43" height="198.6841121495327" data-palette-color="#252422"><path d="M14.2 0L5.6 0 5.6-34.7 0.5-34.7 0.5-42.95 19.3-42.95 19.3-34.7 14.2-34.7 14.2 0ZM28.9 0L20.55 0 24.7-42.95 39.25-42.95 43.35 0 35.2 0 34.6-6.95 29.4-6.95 28.9 0ZM31.65-35.65L30.05-13.8 33.95-13.8 32.05-35.65 31.65-35.65ZM60.6 0L48.85 0 43.55-43 51.75-43 54.9-13.75 57.7-43 65.9-43 60.6 0ZM86.09 0L68.34 0 68.34-42.95 85.54-42.95 85.54-34.65 77.09-34.65 77.09-26.3 85.19-26.3 85.19-18.2 77.09-18.2 77.09-8.35 86.09-8.35 86.09 0Z" opacity="1" transform="matrix(1,0,0,1,0,0)" fill="#252422" class="wordmark-text-0" data-fill-palette-color="primary" id="text-0"></path></svg></g></svg></g><g transform="matrix(1,0,0,1,73.1712,245.58866260934576)"><svg viewBox="0 0 249.17759999999998 56.28613385518591" height="56.28613385518591" width="249.17759999999998"><g transform="matrix(1,0,0,1,0,0)"><svg width="249.17759999999998" viewBox="0.35 -39.65 178.83 40.4" height="56.28613385518591" data-palette-color="#252422"><path d="M11.75-35.25Q14.75-35.25 17.05-34.2 19.35-33.15 21.3-31.05L21.3-31.05 18.35-27.65Q16.8-29.05 15.33-29.75 13.85-30.45 12.2-30.45L12.2-30.45Q10.3-30.45 9.2-29.28 8.1-28.1 8.1-26.2L8.1-26.2Q8.1-24.3 9.25-23.1 10.4-21.9 13.75-20.6L13.75-20.6Q18.05-18.85 20.08-16.5 22.1-14.15 22.1-9.85L22.1-9.85Q22.1-6.9 20.75-4.48 19.4-2.05 16.88-0.65 14.35 0.75 11 0.75L11 0.75Q7.55 0.75 5-0.48 2.45-1.7 0.35-3.95L0.35-3.95 3.55-7.45Q5.35-5.85 7-5 8.65-4.15 10.6-4.15L10.6-4.15Q12.9-4.15 14.18-5.58 15.45-7 15.45-9.45L15.45-9.45Q15.45-11.6 14.33-12.98 13.2-14.35 10.15-15.5L10.15-15.5Q5.55-17.35 3.53-19.75 1.5-22.15 1.5-25.75L1.5-25.75Q1.5-28.5 2.83-30.65 4.15-32.8 6.5-34.02 8.85-35.25 11.75-35.25L11.75-35.25ZM35.5-27.15Q40.5-27.15 43.27-23.65 46.05-20.15 46.05-13.25L46.05-13.25Q46.05-6.65 43.25-2.95 40.45 0.75 35.5 0.75L35.5 0.75Q30.55 0.75 27.75-2.88 24.95-6.5 24.95-13.25L24.95-13.25Q24.95-19.95 27.75-23.55 30.55-27.15 35.5-27.15L35.5-27.15ZM35.5-22.5Q33.35-22.5 32.35-20.38 31.35-18.25 31.35-13.25L31.35-13.25Q31.35-8.2 32.35-6.08 33.35-3.95 35.5-3.95L35.5-3.95Q37.65-3.95 38.65-6.08 39.65-8.2 39.65-13.25L39.65-13.25Q39.65-18.3 38.65-20.4 37.65-22.5 35.5-22.5L35.5-22.5ZM56.2 0.75Q53.5 0.75 51.92-0.93 50.35-2.6 50.35-5.4L50.35-5.4 50.35-37.05 56.5-37.7 56.5-5.65Q56.5-5 56.8-4.6 57.1-4.2 57.7-4.2L57.7-4.2Q58.05-4.2 58.37-4.3 58.7-4.4 58.8-4.4L58.8-4.4 60-0.2Q58.3 0.75 56.2 0.75L56.2 0.75ZM81.19-26.45L81.19 0 75.84 0 75.54-3.35Q74.29-1.3 72.74-0.28 71.19 0.75 69.14 0.75L69.14 0.75Q66.24 0.75 64.57-1.3 62.89-3.35 62.89-6.65L62.89-6.65 62.89-26.45 69.04-26.45 69.04-7Q69.04-3.9 71.14-3.9L71.14-3.9Q72.34-3.9 73.29-4.83 74.24-5.75 75.04-7.45L75.04-7.45 75.04-26.45 81.19-26.45ZM98.04-5L100.19-1.2Q97.74 0.75 94.44 0.75L94.44 0.75Q90.99 0.75 89.19-1.23 87.39-3.2 87.39-6.6L87.39-6.6 87.39-22 84.29-22 84.29-26.45 87.39-26.45 87.39-32.3 93.54-33.05 93.54-26.45 98.54-26.45 97.94-22 93.54-22 93.54-6.6Q93.54-4.2 95.59-4.2L95.59-4.2Q96.24-4.2 96.74-4.38 97.24-4.55 98.04-5L98.04-5ZM102.74-26.45L108.89-26.45 108.89 0 102.74 0 102.74-26.45ZM105.79-39.65Q107.44-39.65 108.46-38.6 109.49-37.55 109.49-35.9L109.49-35.9Q109.49-34.3 108.46-33.25 107.44-32.2 105.79-32.2L105.79-32.2Q104.14-32.2 103.11-33.25 102.09-34.3 102.09-35.9L102.09-35.9Q102.09-37.55 103.11-38.6 104.14-39.65 105.79-39.65L105.79-39.65ZM123.99-27.15Q128.99-27.15 131.76-23.65 134.54-20.15 134.54-13.25L134.54-13.25Q134.54-6.65 131.74-2.95 128.94 0.75 123.99 0.75L123.99 0.75Q119.04 0.75 116.24-2.88 113.44-6.5 113.44-13.25L113.44-13.25Q113.44-19.95 116.24-23.55 119.04-27.15 123.99-27.15L123.99-27.15ZM123.99-22.5Q121.84-22.5 120.84-20.38 119.84-18.25 119.84-13.25L119.84-13.25Q119.84-8.2 120.84-6.08 121.84-3.95 123.99-3.95L123.99-3.95Q126.14-3.95 127.14-6.08 128.14-8.2 128.14-13.25L128.14-13.25Q128.14-18.3 127.14-20.4 126.14-22.5 123.99-22.5L123.99-22.5ZM151.43-27.15Q154.28-27.15 155.93-25.1 157.58-23.05 157.58-19.6L157.58-19.6 157.58 0 151.43 0 151.43-18.9Q151.43-20.8 150.91-21.63 150.38-22.45 149.38-22.45L149.38-22.45Q147.28-22.45 145.23-18.5L145.23-18.5 145.23 0 139.08 0 139.08-26.45 144.43-26.45 144.88-23Q146.23-25.1 147.76-26.13 149.28-27.15 151.43-27.15L151.43-27.15ZM170.48-27.15Q175.18-27.15 178.43-24.05L178.43-24.05 176.08-20.7Q174.68-21.7 173.43-22.2 172.18-22.7 170.88-22.7L170.88-22.7Q169.43-22.7 168.61-21.93 167.78-21.15 167.78-19.8L167.78-19.8Q167.78-18.45 168.71-17.63 169.63-16.8 172.43-15.7L172.43-15.7Q175.88-14.35 177.53-12.5 179.18-10.65 179.18-7.55L179.18-7.55Q179.18-3.7 176.48-1.48 173.78 0.75 169.63 0.75L169.63 0.75Q166.93 0.75 164.66-0.23 162.38-1.2 160.68-2.95L160.68-2.95 163.68-6.25Q166.48-3.8 169.38-3.8L169.38-3.8Q171.03-3.8 171.98-4.67 172.93-5.55 172.93-7.1L172.93-7.1Q172.93-8.25 172.53-8.97 172.13-9.7 171.13-10.33 170.13-10.95 168.13-11.7L168.13-11.7Q164.68-13.05 163.21-14.85 161.73-16.65 161.73-19.45L161.73-19.45Q161.73-22.8 164.11-24.98 166.48-27.15 170.48-27.15L170.48-27.15Z" opacity="1" transform="matrix(1,0,0,1,0,0)" fill="#252422" class="slogan-text-1" data-fill-palette-color="secondary" id="text-1"></path></svg></g></svg></g></svg></g></svg></g><g transform="matrix(1,0,0,1,0,50.72054063226585)"><svg viewBox="0 0 200.4337152 200.4337152" height="200.4337152" width="200.4337152"><g><svg xmlns="http://www.w3.org/2000/svg" xmlns:xlink="http://www.w3.org/1999/xlink" version="1.0" x="0" y="0" viewBox="20 20 60 60" enable-background="new 0 0 100 100" xml:space="preserve" height="200.4337152" width="200.4337152" class="icon-icon-0" data-fill-palette-color="accent" id="icon-0"><path d="M20 26.667c3.682 0 6.667 2.988 6.667 6.667v30C26.667 72.539 34.128 80 43.333 80 52.539 80 60 72.539 60 63.334V40c0-1.842 1.491-3.333 3.333-3.333 1.843 0 3.334 1.491 3.334 3.333v16.666C66.667 64.023 72.637 70 80 70v-6.666c-3.682 0-6.667-2.988-6.667-6.668V40c0-5.524-4.479-10-10-10-5.521 0-10 4.476-10 10v23.334c0 5.523-4.479 10-10 10-5.521 0-10-4.477-10-10v-30C33.333 25.973 27.363 20 20 20V26.667z" fill="#eb5e28" data-fill-palette-color="accent"></path></svg></g></svg></g></svg></g><defs></defs></svg><rect width="395.52" height="185.7291503829465" fill="none" stroke="none" visibility="hidden"></rect></g></svg></g></svg>